<svg xmlns="http://www.w3.org/2000/svg" width="161.941" height="56" viewBox="0 0 161.941 56">
  <g id="Слой_x0020_1" transform="translate(0.07 -3.43)">
    <g id="_1650448617728" transform="translate(0.392 3.43)">
      <path id="Контур_1" data-name="Контур 1" d="M73.778,19.466a5.345,5.345,0,0,1,2.239,1.992c.967,1.591,1.109,4.135,1.109,5.95,0,2.509-.322,5.938-2.341,7.713-2.071,1.821-6.284,2.019-8.893,2.019H51.3V3.43H67.017c2.2,0,5.673.179,7.384,1.774s1.926,4.81,1.926,6.981c0,1.666-.1,4.108-.924,5.6a4.531,4.531,0,0,1-1.626,1.683Zm28.38,9.411H86.814L83.8,37.141H78.611L91.059,3.43h6.857l12.51,33.711h-5.189ZM120.3,8.263V37.141h-5.007V8.263H105.035V3.43H130.6V8.263ZM132.291,3.43H137.3V25.335c0,.864.015,1.738.08,2.6a8.636,8.636,0,0,0,.228,1.574,3.418,3.418,0,0,0,.957,1.658,4.147,4.147,0,0,0,1.775.941,8.665,8.665,0,0,0,1.515.214c.815.06,1.64.074,2.456.074H147.7c.824,0,1.655-.014,2.477-.075a8.833,8.833,0,0,0,1.526-.213,4.162,4.162,0,0,0,1.79-.943,3.246,3.246,0,0,0,.916-1.624,9.281,9.281,0,0,0,.223-1.592c.065-.867.08-1.745.08-2.614V3.43h5.007V25.772c0,3-.411,6.879-2.648,9.118s-6.111,2.65-9.111,2.65H144.05c-3,0-6.874-.411-9.111-2.65s-2.648-6.119-2.648-9.118V3.43Zm51.138,27.511L193.9,3.43H201V37.141h-4.963V10.989l-9.95,26.151h-5.368l-9.95-26.151V37.141h-4.963V3.43h7.058l10.565,27.511Zm23.971,6.2V3.43h5.007V37.141ZM56.219,32.352H67.276c1.023,0,3.028-.076,3.843-.8s.867-3.626.867-4.612c0-1.053-.089-3.241-.983-3.99-.98-.822-4.736-.864-5.954-.864H56.219V32.352Zm0-14.972H67.151c.917,0,2.612-.084,3.3-.8.719-.753.781-3.041.781-4.006,0-.837-.058-3.027-.784-3.622-.789-.646-3.883-.684-4.858-.684H56.219ZM88.53,24.266h11.958l-5.921-16H94.4Z" transform="translate(-51.3 -3.43)" fill="#0ba9f2" fill-rule="evenodd"/>
    </g>
    <path id="Контур_2" data-name="Контур 2" d="M133.247,95.82h11.638c1.894,0,3.159-.341,3.81-1.022s.977-2.177.977-4.494c0-2.214-.348-3.6-1.043-4.169s-2.456-.844-5.3-.844H133.247Zm0,14.972H145.01q3.207,0,4.313-.985c.732-.659,1.1-2.377,1.1-5.139q0-3.5-1.236-4.532t-6.407-1.029h-9.537v11.684Zm-3.507,3.376V81.87h15.011q5.2,0,6.9,1.585t1.7,6.464a11.761,11.761,0,0,1-.836,5.257,4.458,4.458,0,0,1-2.937,2.073,5.477,5.477,0,0,1,3.566,2.31c.673,1.1,1.006,2.969,1.006,5.583q0,5.342-2.1,7.182t-8.427,1.844Zm35.512-11.462h13.983L172.791,85.3h-1.147Zm-7.894,11.462,11.926-32.3h5.874l11.985,32.3H183.46l-3.078-8.263H164.054l-3.011,8.263h-3.684Zm26.116-28.877V81.87h24.148v3.421h-10.3v28.877h-3.6V85.291ZM210.73,81.87h3.6v21.2a19.27,19.27,0,0,0,.333,4.361,4.148,4.148,0,0,0,1.162,1.992,4.916,4.916,0,0,0,2.072,1.1,18.941,18.941,0,0,0,4.15.311h3.388a19.168,19.168,0,0,0,4.18-.311,4.928,4.928,0,0,0,2.086-1.1,3.959,3.959,0,0,0,1.125-1.97,20.041,20.041,0,0,0,.326-4.383V81.87h3.6v21.636c0,4.117-.814,7-2.441,8.619s-4.491,2.444-8.612,2.444h-3.906c-4.114,0-6.992-.815-8.612-2.444s-2.442-4.5-2.442-8.619V81.87Zm33.515,32.3V81.87h5.867l11.053,28.781,10.95-28.781h5.911v32.3h-3.551V84.883l-11.142,29.285h-4.395L247.8,84.883v29.285h-3.551Zm41.594,0V81.87h3.6v32.3Z" transform="translate(-128.641 -77.734)" fill="#0ba9f2"/>
    <path id="Контур_3" data-name="Контур 3" d="M7.849,4242.6H6.769a11.736,11.736,0,0,0-2.6.2,3.272,3.272,0,0,0-1.312.669,2.372,2.372,0,0,0-.724,1.2,10.956,10.956,0,0,0-.212,2.594v4.948a10.739,10.739,0,0,0,.212,2.574,2.372,2.372,0,0,0,.724,1.189,3.278,3.278,0,0,0,1.312.668,11.705,11.705,0,0,0,2.6.2h1.08a11.883,11.883,0,0,0,2.612-.2,3.275,3.275,0,0,0,1.324-.668,2.305,2.305,0,0,0,.708-1.161,11.1,11.1,0,0,0,.2-2.6v-4.968a10.976,10.976,0,0,0-.212-2.6,2.372,2.372,0,0,0-.724-1.2,3.244,3.244,0,0,0-1.3-.652,12.158,12.158,0,0,0-2.612-.192Zm-7.919,4.163q0-3.351,1.384-4.667t4.908-1.321h2.2q3.564,0,4.928,1.3t1.364,4.687v5.917q0,3.362-1.388,4.675t-4.9,1.313h-2.2q-3.528,0-4.908-1.312t-1.384-4.675v-5.917Zm17.9,11.688V4241h1.944v17.46Zm5.626,0V4241h1.9v15.635h9.887v1.825Zm19.525-15.611V4241H56.034v1.849H50.467v15.611H48.523v-15.611Zm14.366,15.611V4241H69.584v1.849H59.265v5.716H69.292v1.777H59.265v6.293H69.584v1.825Zm22.289-15.611H74.067v6.989h5.568a5.007,5.007,0,0,0,2.852-.541,2.35,2.35,0,0,0,.676-1.934v-2.042a2.4,2.4,0,0,0-.652-1.945A5.1,5.1,0,0,0,79.634,4242.845Zm-7.487,15.611V4241h7.876q2.94,0,4.048.872a3.748,3.748,0,0,1,1.108,3.11v2.639a3.657,3.657,0,0,1-.556,2.157,2.5,2.5,0,0,1-1.7.977,2.718,2.718,0,0,1,1.748,1.068,4.59,4.59,0,0,1,.5,2.442v4.195H83.162v-3.6a3.939,3.939,0,0,0-.592-2.538,3.09,3.09,0,0,0-2.316-.66H74.067v6.8h-1.92Zm16.242,0V4241H91.56l5.976,15.56,5.92-15.56h3.2v17.46h-1.92v-15.832l-6.024,15.832H96.332l-6.024-15.832v15.832h-1.92Zm21.949,0V4241h1.944v17.46Zm5.626,0V4241h2.976l9.455,15.583V4241h1.92v17.46h-2.976l-9.455-15.607v15.607Zm20.477-6.2H144l-3.484-9.411h-.62Zm-4.268,6.2,6.448-17.46H141.8l6.48,17.46h-1.992l-1.664-4.467h-8.827l-1.628,4.467Zm17.914,0V4241h1.9v15.635h9.887v1.825Z" transform="translate(0 -4199.242)"/>
  </g>
</svg>
