
<svg height="32px" width="32px" version="1.1" id="Layer_1" xmlns="http://www.w3.org/2000/svg" xmlns:xlink="http://www.w3.org/1999/xlink" 
	 viewBox="0 0 512 512" xml:space="preserve">
<g transform="translate(1 1)">
	<path style="fill:#FFFFFF;" d="M192.707,496.493L17.773,321.56c-8.533-8.533-8.533-22.187,0-30.72L265.24,41.667h198.827v207.36
		l-240.64,247.467C214.893,504.173,201.24,504.173,192.707,496.493L192.707,496.493z"/>
	<g>
		<path style="fill:#0096E6;" d="M208.067,511c-7.68,0-15.36-3.413-21.333-8.533L11.8,327.533
			C5.827,321.56,3.267,313.88,3.267,306.2s3.413-15.36,8.533-21.333L261.827,33.133H472.6V252.44L229.4,502.467
			C223.427,507.587,215.747,511,208.067,511z M268.653,50.2L24.6,296.813c-2.56,2.56-4.267,5.973-4.267,9.387
			c0,3.413,1.707,6.827,3.413,9.387L198.68,490.52c5.12,5.12,13.653,5.12,18.773,0l238.08-244.907V50.2H268.653z"/>
		<path style="fill:#0096E6;" d="M202.093,385.56c-17.067,0-34.133-5.973-47.787-17.067l-9.387,9.387
			c-3.413,3.413-8.533,3.413-11.947,0c-3.413-3.413-3.413-8.533,0-11.947l9.387-9.387c-23.893-29.867-22.187-74.24,5.973-102.4
			c3.413-3.413,8.533-3.413,11.947,0c3.413,3.413,3.413,8.533,0,11.947c-21.333,21.333-23.04,54.613-5.973,77.653l76.8-76.8
			l-6.827-52.053c-1.707-14.507,2.56-29.013,11.093-40.107c8.533-11.093,21.333-17.92,34.987-18.773
			c19.627-1.707,39.253,4.267,54.613,16.213l5.973-5.973c3.413-3.413,8.533-3.413,11.947,0c3.413,3.413,3.413,8.533,0,11.947
			l-5.973,5.973c23.893,29.867,22.187,74.24-5.973,102.4c-3.413,3.413-8.533,3.413-11.947,0c-3.413-3.413-3.413-8.533,0-11.947
			c21.333-21.333,23.04-54.613,5.973-77.653l-76.8,76.8L255,325.827c1.707,14.507-2.56,29.013-11.947,40.107
			c-8.533,11.093-21.333,17.92-34.987,18.773C206.36,385.56,204.653,385.56,202.093,385.56z M166.253,356.547
			c11.947,8.533,26.453,12.8,40.96,11.947c9.387-0.853,17.067-5.12,23.04-12.8c5.973-7.68,9.387-17.92,7.68-27.307l-4.267-39.253
			L166.253,356.547z M277.187,173.933c-1.707,0-3.413,0-5.12,0c-9.387,0.853-17.067,5.12-23.04,12.8
			c-5.973,7.68-9.387,17.92-7.68,27.307l5.12,38.4l67.413-67.413C302.787,178.2,290.84,173.933,277.187,173.933z"/>
	</g>
	<path style="fill:#D0E8F9;" d="M412.867,127c0,18.773-15.36,34.133-34.133,34.133S344.6,145.773,344.6,127
		s15.36-34.133,34.133-34.133S412.867,108.227,412.867,127L412.867,127z"/>
	<g>
		<path style="fill:#0096E6;" d="M378.733,169.667c-23.893,0-42.667-18.773-42.667-42.667s18.773-42.667,42.667-42.667
			c23.893,0,42.667,18.773,42.667,42.667S402.627,169.667,378.733,169.667z M378.733,101.4c-14.507,0-25.6,11.093-25.6,25.6
			s11.093,25.6,25.6,25.6c14.507,0,25.6-11.093,25.6-25.6S393.24,101.4,378.733,101.4z"/>
		<path style="fill:#0096E6;" d="M378.733,135.533c-2.56,0-4.267-0.853-5.973-2.56c-3.413-3.413-3.413-8.533,0-11.947L492.227,1.56
			c3.413-3.413,8.533-3.413,11.947,0c3.413,3.413,3.413,8.533,0,11.947L384.707,132.973C383,134.68,381.293,135.533,378.733,135.533
			z"/>
	</g>
</g>
</svg>